# xmcd CD database file
#
# Track frame offsets:
#	150
#	11111
#	27579
#	37283
#	47061
#	56237
#	66628
#	76474
#	90555
#	102380
#
# Disc length: 1491 seconds
#
# Revision: 0
# Processed by: cddbd v1.5.2PL0 Copyright (c) Steve Scherf et al.
# Submitted via: CDex 1.51
#
DISCID=9205d10a
DTITLE=Red Sovine - anytime
DYEAR=2013
DGENRE=Country
TTITLE0=Anytime
TTITLE1=Letter Edged In Black
TTITLE2=More From Habit Than Desire
TTITLE3=A Kiss And The Keys
TTITLE4=Big Ben Dorsey The Third
TTITLE5=Long Night
TTITLE6=Don't Let My Glass Run Dry
TTITLE7=I Think I Can Sleep Tonight
TTITLE8=Too Much
TTITLE9=Noboddy's Business
EXTD=YEAR: 2013
EXTT0=
EXTT1=
EXTT2=
EXTT3=
EXTT4=
EXTT5=
EXTT6=
EXTT7=
EXTT8=
EXTT9=
PLAYORDER=
